<?xml version="1.0" encoding="utf-8"?>
<!-- Generator: Adobe Illustrator 22.1.0, SVG Export Plug-In . SVG Version: 6.00 Build 0)  -->
<svg version="1.0" id="图层_1" xmlns="http://www.w3.org/2000/svg" xmlns:xlink="http://www.w3.org/1999/xlink" x="0px" y="0px"
	 viewBox="0 0 200 200" style="enable-background:new 0 0 200 200;" xml:space="preserve">
<style type="text/css">
	.st0{fill:#FFF4EB;}
	.st1{fill:#ED6C00;}
	.st2{fill:#FFB37B;}
	.st3{fill:#FFD3B2;}
	.st4{fill:#636F82;}
</style>
<ellipse class="st0" cx="100" cy="100" rx="93.7" ry="93.7"/>
<g>
	<path class="st1" d="M140.2,166.9H59.8c-6.6,0-12-5.4-12-12v-7.4c0-18.7,15.3-33.9,33.9-33.9h36.5c18.7,0,33.9,15.3,33.9,33.9v7.4
		C152.2,161.5,146.8,166.9,140.2,166.9z"/>
	<path class="st2" d="M73.3,88.7L73.3,88.7c-4.8,0-8.8-4-8.8-8.8V77c0-4.8,4-8.8,8.8-8.8l0,0c4.8,0,8.8,4,8.8,8.8v2.9
		C82.1,84.7,78.1,88.7,73.3,88.7z"/>
	<path class="st2" d="M100,126.7L100,126.7c-7.4,0-13.4-6-13.4-13.4V102c0-7.4,6-13.4,13.4-13.4l0,0c7.4,0,13.4,6,13.4,13.4v11.3
		C113.4,120.7,107.4,126.7,100,126.7z"/>
	<path class="st2" d="M126.3,88.7L126.3,88.7c-4.8,0-8.8-4-8.8-8.8V77c0-4.8,4-8.8,8.8-8.8l0,0c4.8,0,8.8,4,8.8,8.8v2.9
		C135.1,84.7,131.2,88.7,126.3,88.7z"/>
	<path class="st3" d="M100,110.6L100,110.6c-15,0-27.3-12.3-27.3-27.3V58.7c0-5.5,4.5-10.1,10.1-10.1h34.4c5.5,0,10.1,4.5,10.1,10.1
		v24.6C127.3,98.3,115,110.6,100,110.6z"/>
	<path class="st4" d="M74,59.5v21.3c0,1.1-0.9,1.9-1.9,1.9l0,0c-1.1,0-1.9-0.9-1.9-1.9v-24c0-5.7,4.4-23.8,29.7-23.8
		s30,18.9,30,23.8v24.1c0,1-0.8,1.8-1.8,1.8l0,0c-1,0-1.8-0.8-1.8-1.8V59.6c0-3.3-2.7-6-6-6H79.9C76.7,53.5,74,56.2,74,59.5z"/>
</g>
</svg>
