<?xml version="1.0" standalone="no"?><!DOCTYPE svg PUBLIC "-//W3C//DTD SVG 1.1//EN" "http://www.w3.org/Graphics/SVG/1.1/DTD/svg11.dtd"><svg class="icon" width="200px" height="200.00px" viewBox="0 0 1024 1024" version="1.1" xmlns="http://www.w3.org/2000/svg"><path d="M512 32.416c-264.866 0-479.584 214.718-479.584 479.584s214.718 479.584 479.584 479.584 479.584-214.718 479.584-479.584-214.718-479.584-479.584-479.584zM512 298.851c66.101 0 119.69 53.586 119.69 119.689 0 66.102-53.586 119.69-119.69 119.69s-119.689-53.586-119.689-119.69c0-66.101 53.586-119.689 119.689-119.689zM717.92 722.969h-411.84c-6.546 0-11.742-4.412-11.385-10.948 4.411-80.913 53.018-149.516 122.102-183.17 3.821-1.861 8.365-1.142 11.77 1.399 23.278 17.371 52.155 27.793 83.431 27.793s60.154-10.219 83.431-27.589c3.406-2.541 7.95-2.954 11.77-1.092 69.084 33.654 117.692 101.729 122.102 182.642 0.357 6.538-4.838 10.965-11.385 10.965z" fill="#1E9FFF" /></svg>