<?xml version="1.0" standalone="no"?><!DOCTYPE svg PUBLIC "-//W3C//DTD SVG 1.1//EN" "http://www.w3.org/Graphics/SVG/1.1/DTD/svg11.dtd"><svg class="icon" width="128px" height="42.23px" viewBox="0 0 3104 1024" version="1.1" xmlns="http://www.w3.org/2000/svg"><path d="M1891.2 752c-166.4 121.6-403.2 185.6-611.2 185.6-288 0-550.4-105.6-745.6-284.8-16-12.8 0-32 16-22.4 211.2 124.8 476.8 198.4 745.6 198.4 182.4 0 384-38.4 569.6-115.2 28.8-12.8 51.2 19.2 25.6 38.4z m44.8 118.4c-12.8 12.8-25.6 6.4-19.2-9.6 19.2-48 64-160 44.8-188.8-22.4-25.6-140.8-12.8-192-6.4-16 3.2-19.2-12.8-3.2-22.4 96-67.2 249.6-48 268.8-25.6 12.8 25.6-9.6 179.2-99.2 252.8z" fill="#FF9900" /><path d="M2099.2 483.2v67.2c0 9.6-9.6 19.2-22.4 16-89.6-48-208-51.2-307.2 0-9.6 6.4-19.2-6.4-19.2-16v-64c0-9.6 0-28.8 9.6-44.8L1932.8 192h-150.4c-9.6 0-16-6.4-16-16v-64c0-9.6 6.4-16 16-16h288c9.6 0 16 6.4 16 16v54.4c0 9.6-6.4 22.4-22.4 41.6L1920 422.4c54.4 0 115.2 6.4 166.4 35.2 9.6 6.4 12.8 16 12.8 25.6z m-896-204.8v284.8c0 9.6-6.4 16-16 16h-89.6c-9.6 0-16-6.4-16-16v-240c0-19.2 3.2-67.2-3.2-83.2-6.4-28.8-25.6-38.4-51.2-38.4-22.4 0-44.8 12.8-51.2 38.4s-9.6 60.8-9.6 86.4v240c0 9.6-6.4 16-16 16H864c-9.6 0-16-6.4-16-16v-240c0-51.2 9.6-124.8-54.4-124.8s-60.8 73.6-60.8 124.8v240c0 9.6-6.4 16-16 16h-89.6c-9.6 0-16-6.4-16-16V115.2c0-9.6 6.4-16 16-16h83.2c9.6 0 16 6.4 16 16v57.6c22.4-57.6 60.8-83.2 115.2-83.2 54.4 0 89.6 25.6 115.2 83.2 22.4-57.6 70.4-83.2 121.6-83.2 38.4 0 76.8 16 102.4 48 28.8 38.4 22.4 92.8 22.4 140.8z m1139.2-188.8c-128 0-198.4 108.8-198.4 249.6s70.4 249.6 198.4 249.6c121.6 0 201.6-108.8 201.6-246.4 0-140.8-73.6-252.8-201.6-252.8z m0 406.4c-70.4 0-67.2-118.4-67.2-172.8 0-54.4 3.2-144 70.4-144 25.6 3.2 44.8 12.8 54.4 44.8 12.8 35.2 12.8 80 12.8 118.4 0 57.6-3.2 153.6-70.4 153.6z m627.2-214.4v284.8c0 6.4-9.6 12.8-16 12.8h-89.6c-9.6 0-16-6.4-16-12.8V320c0-48 6.4-121.6-54.4-121.6-22.4 0-41.6 12.8-51.2 35.2-12.8 28.8-12.8 54.4-12.8 86.4v243.2c0 9.6-6.4 16-16 16H2624c-9.6 0-16-6.4-16-16V112c0-9.6 9.6-16 16-16h83.2c6.4 0 12.8 6.4 16 12.8v70.4c25.6-60.8 60.8-89.6 121.6-89.6 38.4 0 76.8 12.8 102.4 54.4 22.4 35.2 22.4 96 22.4 137.6zM1696 496c-16-22.4-32-41.6-32-80V278.4c0-57.6 3.2-112-38.4-150.4-35.2-32-89.6-44.8-131.2-44.8-83.2 0-176 32-198.4 134.4-3.2 9.6 6.4 16 12.8 19.2l86.4 9.6c9.6 0 12.8-9.6 16-16 6.4-35.2 38.4-51.2 70.4-51.2 19.2 0 38.4 6.4 48 22.4 12.8 19.2 9.6 41.6 9.6 64v12.8c-51.2 6.4-118.4 9.6-166.4 32-54.4 19.2-92.8 67.2-92.8 137.6 0 89.6 57.6 137.6 131.2 137.6 64 0 96-16 144-64 16 22.4 22.4 35.2 51.2 57.6 6.4 3.2 16 3.2 22.4-3.2 19.2-16 48-44.8 67.2-57.6 6.4-3.2 6.4-12.8 0-22.4z m-172.8-38.4c-12.8 25.6-35.2 38.4-60.8 38.4-35.2 0-54.4-25.6-54.4-64 0-73.6 67.2-89.6 131.2-89.6v19.2c0 38.4 0 67.2-16 96z m-982.4 38.4c-16-22.4-32-41.6-32-80V278.4c0-57.6 3.2-112-38.4-150.4-35.2-32-89.6-44.8-131.2-44.8-83.2 0-176 32-198.4 134.4-3.2 12.8 6.4 19.2 12.8 19.2l86.4 9.6c6.4 0 12.8-9.6 16-16 6.4-35.2 38.4-51.2 70.4-51.2 19.2 0 38.4 6.4 48 22.4 12.8 19.2 9.6 41.6 9.6 64v12.8c-51.2 6.4-118.4 9.6-166.4 32-54.4 22.4-92.8 73.6-92.8 144 0 89.6 57.6 137.6 131.2 137.6 64 0 96-16 144-64 16 22.4 22.4 35.2 51.2 57.6 6.4 3.2 16 3.2 19.2-3.2 19.2-16 48-44.8 67.2-57.6 9.6-9.6 9.6-19.2 3.2-28.8z m-172.8-38.4c-12.8 25.6-35.2 38.4-60.8 38.4-35.2 0-54.4-25.6-54.4-64 0-73.6 67.2-89.6 131.2-89.6v19.2c0 38.4 3.2 67.2-16 96z" fill="#221F1F" /></svg>