<?xml version="1.0" standalone="no"?><!DOCTYPE svg PUBLIC "-//W3C//DTD SVG 1.1//EN" "http://www.w3.org/Graphics/SVG/1.1/DTD/svg11.dtd"><svg class="icon" width="200px" height="200.00px" viewBox="0 0 1024 1024" version="1.1" xmlns="http://www.w3.org/2000/svg"><path d="M828.416 195.584c-87.552-87.552-202.24-131.072-316.416-131.072s-229.376 43.52-316.416 131.072c-174.592 174.592-174.592 458.752 0 633.344 87.552 87.552 201.728 131.072 316.416 131.072s229.376-43.52 316.416-131.072c174.592-174.592 174.592-458.752 0-633.344z m-51.712 199.68L476.16 715.264c-2.048 2.048-3.584 3.072-5.12 3.584-1.536 1.024-2.56 2.048-4.608 2.56-3.584 1.536-7.68 2.56-11.776 2.56-4.096 0-7.68-1.024-11.264-2.048l-3.584-2.048c-2.048-1.024-4.096-2.048-6.144-3.584 0 0-0.512 0-0.512-0.512l-171.52-168.96c-6.144-5.632-9.216-13.824-9.216-22.016s3.072-16.384 8.704-22.016c11.776-11.776 32.256-11.776 44.032 0l148.48 146.432L731.648 353.28c11.264-11.776 31.744-12.8 44.032-1.536 6.144 5.632 9.728 13.312 9.728 22.016 0 7.68-3.072 15.872-8.704 21.504z" fill="#57C22D" /></svg>