<?xml version="1.0" encoding="utf-8"?>
<!-- Generator: Adobe Illustrator 22.1.0, SVG Export Plug-In . SVG Version: 6.00 Build 0)  -->
<svg version="1.1" id="图层_1" xmlns="http://www.w3.org/2000/svg" xmlns:xlink="http://www.w3.org/1999/xlink" x="0px" y="0px"
	 viewBox="0 0 640 512" style="enable-background:new 0 0 640 512;" xml:space="preserve">
<style type="text/css">
	.st0{fill:#86B715;}
	.st1{fill:#F3B000;}
	.st2{fill:#0164D0;}
	.st3{fill:#E43139;}
</style>
<g>
	<path class="st0" d="M640,189.5l-99.2,194.8h-35.9l28.5-54.1l-74.6-140.7h37.5l54.9,109.9L606,189.5H640z"/>
	<path class="st1" d="M405.2,263.9c-29.1,0.9-47.2,6.2-47.2,25.3c0,12.4,9.9,25.8,35,25.8c33.7,0,51.6-18.4,51.6-48.4v-3.3
		C432.8,263.3,418.3,263.4,405.2,263.9 M476.7,303.6c0,9.3,0.3,18.6,1,26.8h-29.8c-0.8-6.9-1.1-13.6-1.1-20.2
		c-16.1,19.8-35.3,25.5-61.9,25.5c-39.5,0-60.6-20.9-60.6-45c0-35,28.8-47.3,78.6-48.4c13.7-0.3,29-0.4,41.7-0.4v-3.4
		c0-23.4-15-33-41-33c-19.3,0-33.6,8-35,21.8h-33.7c3.6-34.4,39.7-43.1,71.5-43.1c38.1,0,70.3,13.5,70.3,53.8V303.6z"/>
	<path class="st2" d="M243.6,313.7c29.8,0,50.2-21.5,50.2-53.8c0-32.4-20.4-53.8-50.2-53.8c-29.6,0-50.2,21.4-50.2,53.8
		C193.4,292.2,214,313.7,243.6,313.7 M161.4,127.7h32.1v80.6c15.7-18.7,37.4-24.2,58.7-24.2c35.7,0,75.4,24.1,75.4,76.2
		c0,43.6-31.5,75.4-76,75.4c-23.3,0-45.1-8.3-58.7-24.9c0,6.6-0.4,13.2-1.1,19.5h-31.5c0.5-10.2,1.1-22.8,1.1-33.1L161.4,127.7
		L161.4,127.7z"/>
	<path class="st3" d="M127.6,246.6c-2.3-54.7-87.5-56.6-94.4,0H127.6z M32.6,268c3.5,58.3,79.2,57.4,91.2,21.6h33.1
		c-6.4,34.4-43,46.1-74.4,46.1c-57.2,0-82.5-31.5-82.5-74c0-46.8,26.2-77.6,83-77.6c45.3,0,78.4,23.7,78.4,75.4v8.5H32.6L32.6,268z"
		/>
</g>
</svg>
