<?xml version="1.0" standalone="no"?><!DOCTYPE svg PUBLIC "-//W3C//DTD SVG 1.1//EN" "http://www.w3.org/Graphics/SVG/1.1/DTD/svg11.dtd"><svg t="1558939666650" class="icon" style="" viewBox="0 0 2159 1024" version="1.1" xmlns="http://www.w3.org/2000/svg" p-id="1465" xmlns:xlink="http://www.w3.org/1999/xlink" width="33.734375" height="16"><defs><style type="text/css"></style></defs><path d="M231.557789 80.616415c0-10.720268 0.857621-17.152429 19.296482-17.152428h245.279732c42.881072 0 66.465662 36.448911 83.618091 105.058626l13.721943 54.887772h42.02345c7.718593-155.229481 13.721943-222.981575 13.721943-222.981574s-105.058626 12.0067-167.23618 12.0067H168.093802L0 6.432161V51.457286l56.603015 10.720268c39.450586 7.718593 49.313233 16.294807 52.314908 52.314908 0 0 3.430486 107.20268 3.430486 283.872697s-3.430486 283.015075-3.430486 283.015076c0 32.160804-12.864322 43.738693-52.314908 51.457286L0 743.9866V789.011725l168.093802-5.145728h280.871022c63.463987 0 210.117253 5.145729 210.117253 5.145728 3.430486-38.592965 24.871022-213.547739 27.872697-232.41541H647.504188l-42.023451 95.19598c-33.447236 75.041876-81.474037 80.616415-135.075377 80.616415H310.887772c-53.60134 0-79.329983-21.440536-79.329983-67.752094V420.234506s119.20938 0 157.802345 3.430486c30.01675 2.144054 48.026801 10.720268 57.889447 52.314907l12.864322 55.745394H505.99665l-3.430486-140.649916 6.432161-141.507538H463.115578l-15.008375 62.177555C438.244556 352.482412 432.241206 360.201005 390.217755 364.489112c-54.887772 5.145729-158.659966 4.288107-158.659966 4.288107V80.616415z m1412.931323 882.063652c-32.160804 0-42.023451-15.008375-46.311558-36.448911l-16.294807-83.618091-45.025126 2.144054c-6.432161 49.313233-16.294807 105.058626-29.159129 149.226131 30.01675 20.582915 66.465662 30.01675 115.778895 30.01675 72.897822 0 182.244556-20.582915 280.871022-252.998325l171.524288-406.512563c13.721943-32.160804 18.01005-36.448911 60.033501-52.314908l22.298157-8.576214V265.862647l-102.056951 5.145728-107.20268-5.145728v37.735343l27.872696 8.576214c27.872697 8.576214 40.737018 18.01005 40.737019 40.737019 0 12.0067-3.430486 17.152429-9.433836 32.160804-12.0067 30.01675-87.906198 217.835846-125.21273 299.309883C1835.309883 566.030151 1770.988275 390.217755 1763.269682 364.489112c-2.144054-6.432161-3.430486-12.0067-3.430486-17.152429 0-17.152429 12.0067-30.874372 37.735343-36.448911l35.162479-7.718593V265.862647l-146.653266 5.145728L1569.447236 265.862647v37.735343l19.296483 6.432161c27.872697 9.433836 30.874372 12.864322 49.313232 53.60134 73.755444 167.236181 156.515913 380.78392 183.530989 450.251256-58.318258 116.636516-126.927973 148.79732-177.098828 148.79732z m-438.673367-346.050251l-40.737018 0.857621c5.145729 51.457286 6.432161 102.914573 0 150.083752 0 0 81.474037 30.01675 163.805695 30.016751 111.490787 0 200.683417-53.60134 200.683417-157.802345 0-182.244556-270.150754-153.514238-270.150754-275.296483 0-50.599665 46.311558-69.467337 93.480737-69.467336 39.450586 0 72.040201 13.721943 78.043552 34.304857l26.586264 80.616416 39.450586-2.144054c2.144054-42.881072 5.145729-92.194305 12.006701-132.073702-34.304858-15.008375-106.345059-23.58459-150.941374-23.584589-105.058626 0-189.534338 46.311558-189.534338 149.22613 0 180.100503 263.718593 140.649916 263.718593 275.296483 0 45.025126-29.159129 79.329983-93.480737 79.329983-60.891122 0-90.907873-30.874372-102.914573-62.177555l-30.016751-77.185929z m-337.474036-505.99665C845.61474 240.134003 783.865997 287.303183 707.537688 295.879397v37.735343h95.19598v329.326634c0 92.194305 60.891122 137.21943 142.365159 137.21943 63.463987 0 128.643216-26.586265 150.941374-82.331658l-22.298157-29.159129C1063.450586 706.680067 1029.145729 733.266332 986.264657 733.266332c-47.169179 0-72.897822-32.160804-72.897823-113.634841V329.326633l158.659967 12.0067 8.576214-72.897822-167.236181 6.00335V110.633166h-45.025125z" fill="#FF6C2C" p-id="1466"></path></svg>