<?xml version="1.0" encoding="utf-8"?>
<!-- Generator: Adobe Illustrator 22.1.0, SVG Export Plug-In . SVG Version: 6.00 Build 0)  -->
<svg version="1.1" id="图层_1" xmlns="http://www.w3.org/2000/svg" xmlns:xlink="http://www.w3.org/1999/xlink" x="0px" y="0px"
	 viewBox="0 0 200 200" style="enable-background:new 0 0 200 200;" xml:space="preserve">
<style type="text/css">
	.st0{fill:#ED6C00;}
</style>
<path class="st0" d="M200,100C200,44.8,155.2,0,100,0S0,44.8,0,100s44.8,100,100,100S200,155.2,200,100 M115.6,150.6
	c-4.5,1.8-8,3.1-10.7,4c-3,1-6.1,1.4-9.3,1.4c-5.4,0-9.6-1.4-12.6-4c-3-2.5-4.6-6.2-4.5-10.1c0-1.6,0.1-3.3,0.4-4.9
	c0.2-1.9,0.6-3.7,1.1-5.5l5.6-19.8c0.5-1.9,0.9-3.8,1.2-5.4c0.4-1.5,0.5-3.1,0.5-4.6c0-2.5-0.5-4.3-1.6-5.3s-3.1-1.5-6-1.5
	c-1.5,0-3,0.2-4.5,0.6c-1.5,0.5-2.8,0.9-3.9,1.3l1.5-6.1c3.6-1.5,7.3-2.7,10.5-3.9c3.1-1,6.3-1.5,9.5-1.6c5.4,0,9.5,1.3,12.5,3.9
	c2.9,2.6,4.5,6.3,4.4,10.1c0,0.9-0.1,2.4-0.3,4.5c-0.1,2-0.5,4.1-1.1,6l-5.5,19.8c-0.5,1.8-0.9,3.6-1.3,5.4
	c-0.3,1.5-0.5,3.1-0.5,4.6c0,2.6,0.6,4.5,1.8,5.4c1.1,0.9,3.3,1.4,6.1,1.4c1.6,0,3.1-0.3,4.6-0.8c1.3-0.4,2.5-0.8,3.8-1.3
	L115.6,150.6 M114.1,70.5c-4.4,5.3-12.2,6.1-17.6,1.8c-5.3-4.4-6.1-12.2-1.8-17.6c0.4-0.5,0.8-0.9,1.2-1.3l0.5-0.5
	c4.5-5.2,12.4-5.9,17.6-1.4c5.2,4.5,5.9,12.4,1.4,17.6C115.1,69.6,114.6,70.1,114.1,70.5z"/>
</svg>
