<?xml version="1.0" standalone="no"?><!DOCTYPE svg PUBLIC "-//W3C//DTD SVG 1.1//EN" "http://www.w3.org/Graphics/SVG/1.1/DTD/svg11.dtd"><svg class="icon" width="200px" height="200.00px" viewBox="0 0 1024 1024" version="1.1" xmlns="http://www.w3.org/2000/svg"><path d="M1024 512a512 512 0 1 0-512 512 512 512 0 0 0 512-512m-432 259.2c-23.04 8.96-40.96 16-55.04 20.48a149.12 149.12 0 0 1-47.36 7.04c-27.52 0-49.28-7.04-64.64-20.48a64.64 64.64 0 0 1-23.04-51.84 163.904 163.904 0 0 1 1.92-24.96 199.488 199.488 0 0 1 5.76-28.16l28.8-101.12c2.56-9.6 4.48-19.2 6.4-27.52a99.392 99.392 0 0 0 2.56-23.68c0-12.8-2.56-21.76-8.32-26.88S423.04 486.4 408.32 486.4a95.168 95.168 0 0 0-23.04 3.2c-7.68 2.56-14.08 4.48-19.84 6.4l7.68-31.36c18.56-7.68 37.12-14.08 53.76-19.84a180.288 180.288 0 0 1 48.64-8.32c27.52 0 48.64 6.4 64 19.84a66.112 66.112 0 0 1 22.4 51.84c0 4.48-0.64 12.16-1.28 23.04a129.856 129.856 0 0 1-5.76 30.72l-28.16 101.12c-2.56 8.96-4.48 18.56-6.4 27.52a148.8 148.8 0 0 0-2.56 23.68c0 13.44 3.2 23.04 8.96 27.52s16.64 7.04 31.36 7.04a76.352 76.352 0 0 0 23.68-3.84c6.4-1.92 12.8-3.84 19.2-6.4l-8.96 32.64m-7.68-410.24a64 64 0 1 1-92.8-87.68l2.56-2.56a64 64 0 1 1 90.24 90.24z" fill="#1890ff" /></svg>