<?xml version="1.0" standalone="no"?><!DOCTYPE svg PUBLIC "-//W3C//DTD SVG 1.1//EN" "http://www.w3.org/Graphics/SVG/1.1/DTD/svg11.dtd"><svg class="icon" width="200px" height="180.92px" viewBox="0 0 1132 1024" version="1.1" xmlns="http://www.w3.org/2000/svg"><path d="M1120.117791 597.647444c-17.17137-17.17137-44.603681-17.17137-61.775051 0L814.174233 841.815951l-105.331697-105.331697c-17.17137-17.17137-44.603681-17.17137-61.775051 0s-17.17137 44.603681 0 61.775051l135.905112 135.905112c8.585685 8.585685 19.893661 12.773824 31.201636 12.773824 11.307975 0.209407 22.615951-4.188139 31.201636-12.773824l274.741922-274.741922c16.961963-16.961963 16.961963-44.603681 0-61.775051z m0 0" fill="#62B84F" /><path d="M104.703476 787.998364c-11.307975 0-20.940695-9.63272-20.940695-20.940695V323.533742L487.9182 542.364008c6.910429 4.606953 15.286708 7.119836 23.662986 7.119837 0 0.209407 0 0.209407 0.209407 0.209407 8.376278 0 16.543149-2.512883 23.662986-7.119837l403.946012-219.039673v253.59182l83.762781-83.762781V180.927607c0-57.586912-47.116564-104.703476-104.703476-104.703476H104.703476c-57.586912 0-104.703476 47.116564-104.703476 104.703476v586.548876c0 57.586912 47.116564 104.703476 104.703476 104.703476h488.127608L508.858896 788.207771l-404.15542-0.209407z m-20.940695-607.280164c0-11.307975 9.63272-20.940695 20.940695-20.940695h813.75542c11.307975 0 20.940695 9.63272 20.940695 20.940695v47.744786L511.581186 460.067076 83.762781 228.462986V180.7182z m0 0" fill="#CCCCCC" /></svg>