<?xml version="1.0" standalone="no"?><!DOCTYPE svg PUBLIC "-//W3C//DTD SVG 1.1//EN" "http://www.w3.org/Graphics/SVG/1.1/DTD/svg11.dtd"><svg class="icon" width="200px" height="200.00px" viewBox="0 0 1024 1024" version="1.1" xmlns="http://www.w3.org/2000/svg"><path d="M697.73 397.59c-5.76-4.72-41.35 43.42-45.16 48.65 0 0-44-36-130 9-84 44-172-17-172-17-4.72-5.76-31.37-45.37-37.13-40.65a13.49 13.49 0 0 0-1.87 19l183.14 223.29a14.5 14.5 0 0 0 21.75 0L699.6 416.57a13.5 13.5 0 0 0-1.87-18.98z" fill="#BAD4FF" /><path d="M487.060935 633.250107m8.548893-10.42242l183.16067-223.301108q8.548893-10.422419 18.971313-1.873526l0.007732 0.006342q10.422419 8.548893 1.873526 18.971312l-183.160671 223.301108q-8.548893 10.422419-18.971312 1.873527l-0.007732-0.006342q-10.422419-8.548893-1.873526-18.971313Z" fill="#3585F9" /><path d="M303.01599 406.110276m10.42242-8.548893l0.007732-0.006342q10.422419-8.548893 18.971312 1.873526l183.160671 223.301108q8.548893 10.422419-1.873526 18.971313l-0.007732 0.006342q-10.422419 8.548893-18.971313-1.873526l-183.16067-223.301108q-8.548893-10.422419 1.873526-18.971313Z" fill="#3585F9" /><path d="M875.63 419.63L773.22 249a27 27 0 0 0-23.12-13.08H275.9A27 27 0 0 0 252.78 249L150.37 419.63a27 27 0 0 0 2.25 30.95l128 156.5 0.23-0.17a13.25 13.25 0 0 0 11.15 6.21 13.47 13.47 0 0 0 13.48-13.48 13.25 13.25 0 0 0-3.12-8.31l0.18-0.13-129-157.69L275.9 262.84h474.2l102.41 170.67-339.51 415-142.16-173.77-0.17 0.12a13.32 13.32 0 0 0-10.19-4.86A13.49 13.49 0 0 0 347 683.43a13.2 13.2 0 0 0 2.24 7l-0.24 0.17 143.13 175a26.95 26.95 0 0 0 41.74 0l339.51-415a27 27 0 0 0 2.25-30.97z" fill="#3585F9" /></svg>