<?xml version="1.0" standalone="no"?><!DOCTYPE svg PUBLIC "-//W3C//DTD SVG 1.1//EN" "http://www.w3.org/Graphics/SVG/1.1/DTD/svg11.dtd"><svg class="icon" width="200px" height="200.00px" viewBox="0 0 1024 1024" version="1.1" xmlns="http://www.w3.org/2000/svg"><path d="M389.12 122.88h380.928c12.288 0 24.576 6.144 30.72 14.336l217.088 260.096c6.144 8.192 6.144 18.432 0 26.624L620.544 864.256c-14.336 16.384-40.96 18.432-57.344 2.048l-2.048-2.048L141.312 423.936c-6.144-8.192-8.192-18.432 0-26.624L358.4 137.216c8.192-8.192 18.432-14.336 30.72-14.336z" fill="#FFD333" /><path d="M481.28 899.072c-10.24 0-20.48-4.096-28.672-12.288L24.576 438.272c-14.336-14.336-14.336-38.912-2.048-55.296l204.8-245.76c8.192-8.192 20.48-14.336 32.768-14.336h442.368c12.288 0 24.576 6.144 30.72 14.336l204.8 245.76c12.288 16.384 12.288 38.912-2.048 55.296L509.952 886.784c-6.144 8.192-18.432 12.288-28.672 12.288zM81.92 409.6l399.36 419.84L880.64 409.6 692.224 184.32H270.336L81.92 409.6z" fill="#222222" /><path d="M471.04 634.88c-8.192 0-18.432-2.048-26.624-8.192-6.144-4.096-10.24-8.192-14.336-14.336l-2.048-2.048-129.024-245.76c-8.192-14.336-2.048-32.768 12.288-40.96 14.336-8.192 32.768-2.048 40.96 12.288L471.04 559.104l116.736-223.232c8.192-14.336 26.624-20.48 40.96-12.288s20.48 26.624 12.288 40.96L512 614.4c-10.24 14.336-24.576 20.48-40.96 20.48z" fill="#222222" /></svg>