<?xml version="1.0" encoding="utf-8"?>
<!-- Generator: Adobe Illustrator 22.1.0, SVG Export Plug-In . SVG Version: 6.00 Build 0)  -->
<svg version="1.0" id="图层_1" xmlns="http://www.w3.org/2000/svg" xmlns:xlink="http://www.w3.org/1999/xlink" x="0px" y="0px"
	 viewBox="0 0 200 200" style="enable-background:new 0 0 200 200;" xml:space="preserve">
<style type="text/css">
	.st0{fill:#FEAA36;}
	.st1{opacity:0.5;fill:#FEAA36;enable-background:new    ;}
	.st2{fill:#F4A53B;}
</style>
<path class="st0" d="M101.3,190.8c-6.4,0-11.8-4.1-14.4-6.6l-0.3-0.3L6.2,97.7C0.3,92-1.2,83.1,2.5,76l0.1-0.1l30.8-54.6
	c3.6-6.8,9.5-10.5,16.9-10.5h99.2c4.4,0,10.8,1.7,16.6,9.9l0.3,0.5l31,54.8c3.9,7.4,2,15.8-1.7,21l-0.4,0.5l-79,86.1
	C113,188.3,107.7,190.8,101.3,190.8z M94.5,176.3c2.4,2.2,5,3.5,6.8,3.5c2.9,0,4.9-0.9,6.2-2.7l0.2-0.3l0.3-0.3l78.9-86.1
	c1.5-2.3,2.3-6.2,0.8-9.1L157,26.9c-2.4-3.4-5-5.1-7.5-5.1H50.3c-3.3,0-5.5,1.4-7.2,4.7L43,26.6L12.2,81.2c-1.4,2.7-0.7,6.3,1.7,8.6
	l0.2,0.2L94.5,176.3z"/>
<path class="st1" d="M171.4,80.4l-23.8-40.2c-2.1-2.8-5.2-5.6-9.3-5.6H61.7c-4.1,0-7.2,1.9-9.3,5.6L28.6,80.4
	c-2.1,3.7-1,8.4,2.1,11.2l62.1,63.5c2.1,1.9,5.2,3.7,8.3,3.7s6.2-0.9,8.3-3.7l61.1-63.5C172.4,88.9,173.5,84.2,171.4,80.4
	L171.4,80.4z"/>
<path class="st2" d="M65,76.6l36.5,41.1l33.3-41.1l20.7,0.1l-54.1,65.8L44.5,76.6H65z"/>
</svg>
