<?xml version="1.0" encoding="utf-8"?>
<!-- Generator: Adobe Illustrator 22.1.0, SVG Export Plug-In . SVG Version: 6.00 Build 0)  -->
<svg version="1.0" id="图层_1" xmlns="http://www.w3.org/2000/svg" xmlns:xlink="http://www.w3.org/1999/xlink" x="0px" y="0px"
	 viewBox="0 0 200 200" style="enable-background:new 0 0 200 200;" xml:space="preserve">
<style type="text/css">
	.st0{fill:#FEAA36;}
	.st1{opacity:0.5;fill:#FEAA36;enable-background:new    ;}
</style>
<path class="st0" d="M100,181.3c-38.6,0-70-31.4-70-70c0-38.6,31.4-70,70-70c38.6,0,70,31.4,70,70C170,149.9,138.6,181.3,100,181.3z
	 M100,52.3c-32.5,0-59,26.5-59,59c0,32.5,26.5,59,59,59c32.5,0,59-26.5,59-59C159,78.8,132.5,52.3,100,52.3z"/>
<path class="st0" d="M126.8,33.1H73.2c-2.1,0-3.9-1.8-3.9-3.9V21c0-2.1,1.8-3.9,3.9-3.9h53.5c2.1,0,3.9,1.8,3.9,3.9v8.2
	C130.7,31.3,128.9,33.1,126.8,33.1z"/>
<path class="st0" d="M100,47.5L100,47.5c-3.3,0-6-2.7-6-6V24.8c0-3.3,2.7-6,6-6l0,0c3.3,0,6,2.7,6,6v16.7
	C106,44.8,103.3,47.5,100,47.5z"/>
<circle class="st1" cx="100" cy="111.3" r="49"/>
<path class="st0" d="M100,112.6L100,112.6c-3.3,0-6-2.7-6-6V84.4c0-3.3,2.7-6,6-6l0,0c3.3,0,6,2.7,6,6v22.2
	C106,109.9,103.3,112.6,100,112.6z"/>
<circle class="st0" cx="100" cy="111.3" r="10.8"/>
</svg>
