<?xml version="1.0" encoding="utf-8"?>
<!-- Generator: Adobe Illustrator 22.1.0, SVG Export Plug-In . SVG Version: 6.00 Build 0)  -->
<svg version="1.0" id="图层_1" xmlns="http://www.w3.org/2000/svg" xmlns:xlink="http://www.w3.org/1999/xlink" x="0px" y="0px"
	 viewBox="0 0 111 37" style="enable-background:new 0 0 111 37;" xml:space="preserve">
<style type="text/css">
	.st0{fill:#29C8F3;}
</style>
<title>logo</title>
<desc>Created with Sketch.</desc>
<g>
	<g>
		<path class="st0" d="M93.9,14.1c0.3-4.6,0.9-6,1.8-13.8c-1.8-0.1-3.6-0.2-5.4-0.3c-0.5,0.4-0.9,0.7-1.4,1.1
			c-1.6,11.4-3.3,22.8-4.9,34.2c2,1.1,4.7,0.8,6.8,0c0.7-2.7,0.8-8.1,1.8-12c1.2-4.4,3.5-7,8.3-5.7c3.8,1,1.1,13.3,0.4,17.5
			c0.1,0.2,0.5,0.3,0.6,0.4c2,0.5,4,0.5,6,0c0.7-2.3,1-5.1,1.8-9.2C112,14.4,105.4,6.8,93.9,14.1z M56.5,8.7c1,0.4,1.9,0.3,3,0
			c1.9-0.5,3.4-2.4,3.3-4.6c-0.2-1-0.5-2.1-1.8-2.7c-0.6-0.3-1.8-0.6-3.1-0.2c-1.6,0.4-3.7,3.3-3,5.9C55.3,8,55.5,8.2,56.5,8.7z
			 M43.8,12.4c-2.4,4.7,0.8,13-4.8,15.8c-1.6,0.7-3.1-0.3-4.3-0.9c-2-1.8,0.2-7.5,0-10.1c-0.3-1-0.8-1.2-1.3-1.3
			c-1.6-0.2-2.9-0.2-4.8,0c-0.4,0.1-0.8,0.3-1.3,0.9c-1.2,1.7,0.7,9.3-4.4,11.4c-2.2,0.9-4.1-0.5-4.7-2c-0.7-2.7,1.4-9.7,1.6-17.2
			C15.1,5.8,8.7,3.7,3,1.4c-1.6,1.2-2.2,3.9-2.2,7c2.8,2.6,8.2,4.5,11,5.7c-0.5,4.2-1.4,8.3-1.8,13.2c1.5,9,12.2,11.5,18.4,5.7
			c1.6,2,4.6,3.2,7.5,3.1c11.9-0.4,15-11.4,14.8-23.6C48.9,11.5,46,11.7,43.8,12.4z M80.4,18.6c1.6-0.9,2.8-2.2,3-4.6
			c-2.2-2.3-5.1-3.4-9.8-3.2c-4.8,0.5-10.6,5-9.6,10.3c0.9,4.5,9.1,6.2,10.4,6.7c1,0.5,1.5,1,1,2.1c-0.4,0.8-1.3,1-1.6,1.1
			c-5,0.9-6.8-1-9.9-2.4c-1.3,1.3-2.8,2.8-3.7,4.1c4.6,7.3,19.6,4.5,21.8-3c2.3-8-6.7-7.6-11-9.9c-0.5-0.3-1.1-0.8-0.7-1.4
			C73,14.3,77.8,17,80.4,18.6z M55.7,11.6c-1.1,0.1-1.5,0.6-1.6,1.1C53,20.1,52,26.9,50.9,34.3c0.1,0.3,0.1,1,0.2,1.3
			c1.6,0.3,4.4,0.4,6.4,0c1.6-4.1,2.5-16,3.7-22.6C60.8,11.2,58.3,11.5,55.7,11.6z"/>
	</g>
</g>
</svg>
