<?xml version="1.0" standalone="no"?><!DOCTYPE svg PUBLIC "-//W3C//DTD SVG 1.1//EN" "http://www.w3.org/Graphics/SVG/1.1/DTD/svg11.dtd"><svg class="icon" width="200px" height="200.00px" viewBox="0 0 1024 1024" version="1.1" xmlns="http://www.w3.org/2000/svg"><path d="M938.798456 483.830116a37.115058 37.115058 0 0 0 74.032432-4.64556l-0.543629-7.462548C991.678764 213.201544 772.200772 10.625483 512.494208 10.625483 235.984556 10.625483 11.07027 235.539768 11.07027 512.049421c0 276.460232 224.914286 501.374517 501.423938 501.374517 206.579151 0 394.823166-129.630888 468.460232-322.520463a37.065637 37.065637 0 1 0-69.23861-26.440155c-62.8139 164.373745-223.283398 274.878764-399.271042 274.878765-235.63861 0-427.292664-191.654054-427.292664-427.243243 0-235.63861 191.654054-427.292664 427.292664-427.292664 221.306564 0 408.364479 172.528185 425.90888 393.044015l0.444788 5.979923z" fill="#438CFF" /><path d="M217.254054 512a47.938224 47.938224 0 1 0 95.876448 0 47.938224 47.938224 0 0 0-95.876448 0zM464.061776 512a47.938224 47.938224 0 1 0 95.876448 0 47.938224 47.938224 0 0 0-95.876448 0zM759.400772 464.111197a47.938224 47.938224 0 1 0 0 95.876448 47.938224 47.938224 0 0 0 0-95.876448z" fill="#438CFF" /></svg>