<?xml version="1.0" standalone="no"?><!DOCTYPE svg PUBLIC "-//W3C//DTD SVG 1.1//EN" "http://www.w3.org/Graphics/SVG/1.1/DTD/svg11.dtd"><svg class="icon" width="200px" height="200.00px" viewBox="0 0 1024 1024" version="1.1" xmlns="http://www.w3.org/2000/svg"><path d="M817.503 311.462l55.501-55.501-38.069-38.077-54.575 54.576c-70.26-64.409-163.903-103.72-266.732-103.72-218.065 0-394.838 176.773-394.838 394.84 0 218.065 176.773 394.839 394.838 394.839 218.067 0 394.841-176.773 394.841-394.839-0.001-95.854-34.161-183.726-90.966-252.118zM630.285 61.058H396.971v53.841h233.314V61.058z" fill="#000000" /><path d="M513.627 222.583c-188.331 0-340.997 152.674-340.997 340.998 0 188.324 152.667 340.998 340.997 340.998 188.324 0 340.998-152.674 340.998-340.998 0-188.324-152.674-340.998-340.998-340.998z" fill="#F5BB1D" /><path d="M540.549 477.957V348.213h-53.842v129.743c-36.404 11.436-62.814 45.447-62.814 85.625 0 49.557 40.178 89.736 89.734 89.736 49.559 0 89.738-40.18 89.738-89.736 0-40.177-26.41-74.188-62.816-85.624z m-26.922 121.518c-19.822 0-35.894-16.071-35.894-35.894 0-19.823 16.072-35.896 35.894-35.896 19.824 0 35.896 16.072 35.896 35.896 0 19.822-16.072 35.894-35.896 35.894z" fill="#000000" /></svg>