<?xml version="1.0" standalone="no"?><!DOCTYPE svg PUBLIC "-//W3C//DTD SVG 1.1//EN" "http://www.w3.org/Graphics/SVG/1.1/DTD/svg11.dtd"><svg class="icon" width="200px" height="200.00px" viewBox="0 0 1024 1024" version="1.1" xmlns="http://www.w3.org/2000/svg"><path d="M278.528 915.456c-36.864 0-67.584-10.24-88.064-32.768l-30.72-30.72c-61.44-61.44-61.44-163.84 0-225.28 28.672-30.72 69.632-47.104 112.64-47.104 40.96 0 81.92 16.384 110.592 45.056 38.912-26.624 75.776-57.344 108.544-90.112 32.768-32.768 63.488-69.632 90.112-108.544-61.44-61.44-61.44-163.84 0-225.28 28.672-30.72 69.632-47.104 112.64-47.104s81.92 16.384 112.64 47.104l22.528 22.528 6.144 6.144c92.16 92.16-24.576 311.296-182.272 468.992-126.976 131.072-274.432 217.088-374.784 217.088zM233.472 839.68c10.24 10.24 24.576 14.336 45.056 14.336 69.632 0 200.704-61.44 335.872-196.608 161.792-161.792 229.376-335.872 182.272-382.976l-8.192-8.192-22.528-22.528c-18.432-18.432-43.008-28.672-69.632-28.672-26.624 0-51.2 10.24-69.632 28.672-38.912 38.912-38.912 100.352 0 139.264 0 0 4.096 2.048 6.144 4.096 4.096 2.048 6.144 4.096 10.24 6.144l24.576 16.384-16.384 24.576c-32.768 53.248-71.68 100.352-114.688 145.408-43.008 43.008-92.16 81.92-143.36 114.688l-24.576 16.384-16.384-24.576c-2.048-2.048-4.096-6.144-6.144-10.24-2.048-2.048-2.048-4.096-4.096-6.144-18.432-18.432-43.008-28.672-69.632-28.672-26.624 0-51.2 10.24-69.632 28.672-38.912 38.912-38.912 100.352 0 139.264l30.72 30.72zM348.16 364.544c-16.384 0-28.672-12.288-30.72-28.672-8.192-141.312 98.304-196.608 102.4-198.656 14.336-8.192 32.768-2.048 40.96 12.288 8.192 14.336 2.048 32.768-12.288 40.96-4.096 2.048-75.776 40.96-69.632 141.312 2.048 16.384-12.288 32.768-30.72 32.768 2.048 0 2.048 0 0 0zM716.8 845.824c-14.336 0-28.672-12.288-30.72-26.624-2.048-16.384 10.24-32.768 26.624-34.816 2.048 0 59.392-10.24 77.824-75.776 4.096-16.384 22.528-24.576 38.912-20.48 16.384 4.096 24.576 22.528 20.48 38.912-30.72 106.496-124.928 118.784-129.024 118.784H716.8z" fill="#3988FF" /><path d="M757.76 993.28c-14.336 0-28.672-12.288-30.72-26.624-2.048-16.384 10.24-32.768 26.624-34.816 6.144 0 129.024-18.432 169.984-161.792 4.096-16.384 22.528-24.576 38.912-20.48 16.384 4.096 24.576 22.528 20.48 38.912-53.248 182.272-215.04 204.8-221.184 206.848-2.048-2.048-2.048-2.048-4.096-2.048zM184.32 354.304c-16.384 0-30.72-12.288-30.72-28.672C141.312 102.4 327.68 16.384 335.872 12.288c16.384-6.144 32.768 0 40.96 16.384 6.144 16.384 0 32.768-14.336 40.96-8.192 2.048-157.696 73.728-147.456 251.904 2.048 18.432-12.288 32.768-30.72 32.768 2.048 0 2.048 0 0 0z" fill="#DAE9FF" /></svg>