<?xml version="1.0" encoding="utf-8"?>
<!-- Generator: Adobe Illustrator 22.1.0, SVG Export Plug-In . SVG Version: 6.00 Build 0)  -->
<svg version="1.1" id="图层_1" xmlns="http://www.w3.org/2000/svg" xmlns:xlink="http://www.w3.org/1999/xlink" x="0px" y="0px"
	 viewBox="0 0 200 200" style="enable-background:new 0 0 200 200;" xml:space="preserve">
<style type="text/css">
	.st0{fill-rule:evenodd;clip-rule:evenodd;fill:#999899;}
</style>
<g>
	<g>
		<path class="st0" d="M166.4,36.2H33.6C23.2,36.2,15,44.4,15,54.7v90.7c0,10.3,8.2,18.4,18.6,18.4h132.9c10.4,0,18.6-8.2,18.6-18.4
			V54.7C185,44.4,176.5,36.2,166.4,36.2z M124.8,85.8h28.3c2,0,3.5,1.6,3.5,3.5c0,2-1.6,3.5-3.5,3.5h-28.3c-2,0-3.5-1.6-3.5-3.5
			C121.3,87.4,122.8,85.8,124.8,85.8z M124.8,107.1h28.3c2,0,3.5,1.6,3.5,3.5c0,2-1.6,3.5-3.5,3.5h-28.3c-2,0-3.5-1.6-3.5-3.5
			C121.3,108.7,122.8,107.1,124.8,107.1z M112.2,134.6h-0.5c0,0.5-0.5,1.1-1.1,1.1H34.9c-0.5,0-1.1-0.5-1.1-1.1v-2.4
			c0-16.6,10.4-27.5,25.2-33c-4.8-4-7.7-9.7-7.7-16.3c0-11.6,9.6-21.1,21.5-21.1c12,0,21.5,9.5,21.5,21.3c0,6.6-3.2,12.4-7.7,16.3
			c14.9,5.5,25.2,16.4,25.5,33V134.6z M160.2,135.4h-35.4c-2,0-3.5-1.6-3.5-3.5c0-2,1.6-3.5,3.5-3.5h35.4c2,0,3.5,1.6,3.5,3.5
			C163.8,133.8,162.2,135.4,160.2,135.4z"/>
	</g>
</g>
</svg>
