<?xml version="1.0" encoding="utf-8"?>
<!-- Generator: Adobe Illustrator 22.1.0, SVG Export Plug-In . SVG Version: 6.00 Build 0)  -->
<svg version="1.1" id="图层_1" xmlns="http://www.w3.org/2000/svg" xmlns:xlink="http://www.w3.org/1999/xlink" x="0px" y="0px"
	 viewBox="0 0 200 200" style="enable-background:new 0 0 200 200;" xml:space="preserve">
<style type="text/css">
	.st0{fill:#999899;}
</style>
<path class="st0" d="M144.7,39.6c5.2,3.8,9.9,8.1,14,13c4.1,4.8,7.6,10,10.5,15.6c2.9,5.6,5.1,11.5,6.6,17.8
	c1.5,6.3,2.3,12.6,2.3,19c0,11.1-2.1,21.5-6.2,31.2c-4.1,9.7-9.7,18.2-16.7,25.4c-7,7.2-15.3,12.9-24.8,17.2
	c-9.5,4.2-19.6,6.3-30.4,6.3c-10.7,0-20.8-2.1-30.3-6.3c-9.5-4.2-17.8-9.9-24.9-17.2c-7.1-7.2-12.7-15.7-16.7-25.4
	c-4.1-9.7-6.1-20.1-6.1-31.2c0-6.3,0.7-12.5,2.2-18.6c1.5-6.1,3.5-11.9,6.2-17.3c2.7-5.5,6-10.6,9.9-15.4c4-4.8,8.4-9.1,13.3-12.9
	c2.6-1.9,5.3-2.6,8.3-2.1c3,0.5,5.4,2,7.2,4.5c1.9,2.5,2.6,5.3,2.1,8.4c-0.5,3.1-1.9,5.6-4.4,7.5c-7.3,5.5-12.9,12.2-16.8,20.2
	c-3.9,8-5.8,16.6-5.8,25.7c0,7.9,1.5,15.3,4.4,22.2c2.9,7,6.9,13,11.9,18.2c5.1,5.2,11,9.3,17.8,12.3c6.8,3,14,4.6,21.7,4.6
	c7.7,0,14.9-1.5,21.7-4.6c6.8-3,12.7-7.1,17.8-12.3c5.1-5.2,9.1-11.3,12-18.2c3-7,4.4-14.4,4.4-22.2c0-9.3-2.1-18.1-6.3-26.4
	c-4.2-8.3-10.1-15.1-17.6-20.5c-2.6-1.8-4.1-4.2-4.6-7.3c-0.5-3.1,0.1-6,1.8-8.6c1.7-2.5,4.1-4,7.2-4.6
	C139.4,37.2,142.2,37.8,144.7,39.6L144.7,39.6z M99.7,107.1c-2.9,0-5.4-1.1-7.5-3.4c-2.1-2.2-3.1-4.9-3.1-8.1v-69
	c0-3.2,1-5.9,3.1-8.2c2.1-2.3,4.5-3.5,7.5-3.5c3,0,5.6,1.2,7.6,3.5c2.1,2.3,3.1,5,3.1,8.2v69c0,3.2-1,5.8-3.1,8.1
	C105.3,106,102.7,107.1,99.7,107.1L99.7,107.1z M99.7,107.1"/>
</svg>
