<?xml version="1.0" encoding="utf-8"?>
<!-- Generator: Adobe Illustrator 22.1.0, SVG Export Plug-In . SVG Version: 6.00 Build 0)  -->
<svg version="1.1" id="图层_1" xmlns="http://www.w3.org/2000/svg" xmlns:xlink="http://www.w3.org/1999/xlink" x="0px" y="0px"
	 viewBox="0 0 200 200" style="enable-background:new 0 0 200 200;" xml:space="preserve">
<style type="text/css">
	.st0{fill-rule:evenodd;clip-rule:evenodd;fill:#999899;}
</style>
<g>
	<g>
		<path class="st0" d="M15,86v59c0,5,2,9.7,5.7,13.2c3.6,3.5,8.5,5.5,13.7,5.4h131.4c5.1,0,10-2,13.7-5.5c3.6-3.5,5.6-8.2,5.6-13.2
			V86H15z M114.3,142.8c-3.9,0-7.1-3.2-7.1-7.1c0-3.9,3.2-7.1,7.1-7.1c3.9,0,7.1,3.2,7.1,7.1C121.4,139.7,118.2,142.8,114.3,142.8z
			 M135.5,142.8c-3.9,0-7.1-3.2-7.1-7.1c0-3.9,3.2-7.1,7.1-7.1c3.9,0,7.1,3.2,7.1,7.1C142.6,139.7,139.5,142.8,135.5,142.8z
			 M156.8,142.8c-3.9,0-7.1-3.2-7.1-7.1c0-3.9,3.2-7.1,7.1-7.1c3.9,0,7.1,3.2,7.1,7.1C163.9,139.7,160.7,142.8,156.8,142.8z M185,55
			c0-10.3-8.6-18.6-19.3-18.6H34.3c-5.1,0-10,2-13.7,5.5C17,45.3,15,50,15,55v16.9H185V55z"/>
	</g>
</g>
</svg>
