<?xml version="1.0" encoding="utf-8"?>
<!-- Generator: Adobe Illustrator 22.1.0, SVG Export Plug-In . SVG Version: 6.00 Build 0)  -->
<svg version="1.1" id="图层_1" xmlns="http://www.w3.org/2000/svg" xmlns:xlink="http://www.w3.org/1999/xlink" x="0px" y="0px"
	 viewBox="0 0 200 200" style="enable-background:new 0 0 200 200;" xml:space="preserve">
<style type="text/css">
	.st0{fill:#999999;}
</style>
<path class="st0" d="M116.1,185H83.9c-30.6,0-54.7,0-54.7-16.7V165c0-31.3,24.6-56.7,54.7-56.7h32.2c30.2,0,54.7,25.4,54.7,56.7v3.3
	C170.9,185,145.5,185,116.1,185L116.1,185z M98.4,105c-24,0-43.5-20.2-43.5-45c0-24.8,19.5-45,43.5-45s43.5,20.2,43.5,45
	C141.8,84.8,122.3,105,98.4,105L98.4,105z M98.4,105"/>
</svg>
