<?xml version="1.0" encoding="utf-8"?>
<!-- Generator: Adobe Illustrator 22.1.0, SVG Export Plug-In . SVG Version: 6.00 Build 0)  -->
<svg version="1.1" id="图层_1" xmlns="http://www.w3.org/2000/svg" xmlns:xlink="http://www.w3.org/1999/xlink" x="0px" y="0px"
	 viewBox="0 0 200 200" style="enable-background:new 0 0 200 200;" xml:space="preserve">
<style type="text/css">
	.st0{fill:#999899;}
</style>
<path class="st0" d="M180.3,83c4.6-2.7,4.8-4.8,4.8-8.5V49c0-7-6.3-12.8-14.1-12.8H29.1C21.3,36.2,15,42,15,49v25.5
	c0,3.7,0.3,6.3,4.8,8.5c6.5,2.7,14.1,8.2,14.1,17c0,11.4-8,15.1-13.9,17c-4.1,2.4-4.9,6.1-4.9,8.5V151c0,7,6.3,12.8,14.1,12.8h141.7
	c7.8,0,14.1-5.8,14.1-12.8v-25.5c0-4.6-1.2-6.1-4.8-8.5c-10.4-4.8-14.1-9-14.1-17C166.2,92,169.7,88.1,180.3,83L180.3,83z M128.4,98
	c0,1.2-1,2-2.4,2h-18.8v7H126c1.4,0,2.4,1,2.4,2v2.9c0,1.2-1,2-2.4,2h-18.8v19.4c0,1.2-1,2.2-2.4,2.2H95c-1.4,0-2.4-1-2.4-2.2V114
	H74c-1.4,0-2.4-1-2.4-2V109c0-1.2,1-2,2.4-2h18.6v-7H74c-1.4,0-2.4-1-2.4-2v-3.1c0-1.2,1-2.2,2.4-2.2h17.9L72.4,72.8
	c-0.9-0.9-0.9-2.2,0-2.9l3.1-2.9c0.9-0.9,2.2-0.9,3.1,0L100,88.2l21.4-21.4c0.9-0.9,2.2-0.9,3.1,0l3.1,3.1c0.9,0.9,0.9,2.2,0,3.1
	l-19.4,19.8H126c1.4,0,2.4,1,2.4,2V98z M128.4,98"/>
</svg>
