<?xml version="1.0" standalone="no"?><!DOCTYPE svg PUBLIC "-//W3C//DTD SVG 1.1//EN" "http://www.w3.org/Graphics/SVG/1.1/DTD/svg11.dtd"><svg class="icon" width="200px" height="200.00px" viewBox="0 0 1024 1024" version="1.1" xmlns="http://www.w3.org/2000/svg"><path d="M971.869091 515.397818c-4.189091-6.050909-61.44-85.643636-150.341818-159.650909-34.722909-30.557091-75.869091-56.32-75.869091-56.32-68.421818-43.752727-148.014545-76.8-233.658182-76.8-251.345455 0-451.490909 280.669091-459.869091 292.305455-7.447273 10.705455-7.447273 25.134545 0 35.84 5.562182 7.866182 94.068364 130.466909 224.232727 214.690909l0.116364 0.069818 1.885091 1.210182 0.093091-0.093091c23.296 13.056 75.031273 39.610182 86.644363 45.544727a26.344727 26.344727 0 0 0 2.373819 1.233455l0.023272-0.023273c45.335273 18.501818 93.812364 30.603636 144.523637 30.603636 249.018182 0 451.025455-280.203636 459.869091-292.305454a32.349091 32.349091 0 0 0-0.023273-36.305455zM512 719.732364a180.224 180.224 0 0 1-46.429091-6.120728c-50.292364-18.082909-84.968727-48.686545-86.411636-49.966545A187.275636 187.275636 0 0 1 325.818182 533.085091c0-102.865455 83.316364-186.181818 186.181818-186.181818 51.2 0 97.745455 20.945455 131.723636 54.458182 44.381091 57.134545 47.941818 84.247273 47.941819 84.247272 4.189091 15.36 6.516364 31.185455 6.516363 47.941818 0 102.865455-83.316364 186.181818-186.181818 186.181819z" fill="#bfbfbf" /></svg>